<svg xmlns="http://www.w3.org/2000/svg" viewBox="0 0 512 512">
  <defs>
    <linearGradient id="bg" x1="0" y1="0" x2="512" y2="512" gradientUnits="userSpaceOnUse">
      <stop offset="0%" stop-color="#1e2128"/>
      <stop offset="100%" stop-color="#13161c"/>
    </linearGradient>
    <linearGradient id="spark" x1="0" y1="0" x2="1" y2="1">
      <stop offset="0%" stop-color="#ffb3d9"/>
      <stop offset="60%" stop-color="#ff99cc"/>
      <stop offset="100%" stop-color="#ee8eb8"/>
    </linearGradient>
    <filter id="glow" x="-50%" y="-50%" width="200%" height="200%">
      <feGaussianBlur in="SourceGraphic" stdDeviation="18" result="blur"/>
      <feColorMatrix in="blur" type="matrix" values="1 0 0 0 0  0 1 0 0 0  0 0 1 0 0  0 0 0 0.35 0"/>
    </filter>
  </defs>
  <rect width="512" height="512" rx="112" fill="url(#bg)"/>
  <!-- Glow behind spark -->
  <g transform="translate(113,116) scale(3.56)" filter="url(#glow)">
    <polygon fill="#ff99cc" points="40.15 0 46.01 25.46 68.53 11.52 54.31 33.59 80.29 39.34 54.31 45.09 68.53 67.15 46.01 53.22 40.15 78.67 34.28 53.22 11.76 67.15 25.98 45.09 0 39.34 25.98 33.59 11.76 11.52 34.28 25.46"/>
  </g>
  <!-- Main spark (brand symbol from spark.svg) -->
  <g transform="translate(113,116) scale(3.56)">
    <polygon fill="url(#spark)" points="40.15 0 46.01 25.46 68.53 11.52 54.31 33.59 80.29 39.34 54.31 45.09 68.53 67.15 46.01 53.22 40.15 78.67 34.28 53.22 11.76 67.15 25.98 45.09 0 39.34 25.98 33.59 11.76 11.52 34.28 25.46"/>
  </g>
</svg>
