<?xml version="1.0" encoding="UTF-8"?>
<svg id="_레이어_2" data-name="레이어 2" xmlns="http://www.w3.org/2000/svg" viewBox="0 0 133.98 40.71">
  <defs>
    <style>
      .cls-1 {
        fill: #ee8eb8;
      }

      .cls-2 {
        fill: #fff;
      }
    </style>
  </defs>
  <g id="_레이어_1-2" data-name="레이어 1">
    <g>
      <path class="cls-2" d="M0,14.74C0,6.08,5.92.4,14.92.4c4.23,0,7.77.93,10.77,2.46l-3.62,14.05h-.04C15.78,4.95,12.49,2.26,9.58,2.26c-1.81,0-3.21,1.37-3.21,4.59,0,10.27,8.55,18.68,17.3,18.68,1.15,0,2.59-.16,3.37-.52l.04.04c-1.97,3.46-6.45,5.96-11.42,5.96C6.21,31.01,0,24.24,0,14.74Z"/>
      <path class="cls-2" d="M46.02,9.75v10.67h-.04c-4.27-4.63-6.21-5.68-7.64-5.44v14.58h3.08v.64h-13.36v-.64h2.05v-14.62l-2.34-1.97,10.56-3.46v5.03c2.34-3.02,5.01-4.91,6.9-4.91.29,0,.53.04.78.12Z"/>
      <path class="cls-2" d="M68,29.56v.64h-10.27v-2.3c-1.93,1.61-4.11,2.7-6.37,2.7-2.67,0-4.48-1.49-4.48-4.03,0-3.7,4.03-6.16,10.85-6.89,0-4.43-1.81-6.64-4.93-6.64-1.85,0-3.12.48-4.52,1.53l-.21-.2c2.79-3.06,5.84-4.71,9.94-4.71,5.18,0,7.93,2.9,7.93,8.74v11.15h2.05ZM57.73,27.34v-7.13c-2.47.68-3.41,2.21-3.41,4.35,0,1.89.82,2.9,2.47,2.9.25,0,.58-.04.95-.12Z"/>
      <path class="cls-2" d="M96.07,29.56v.64h-12.33v-.64h2.05V4.35l-1.15-1.73c-.86-1.29-1.4-1.85-2.46-1.85-1.64,0-2.34,1.93-2.34,6.16v3.54h4.07v.64h-4.07v18.44h2.05v.64h-12.33v-.64h2.05V11.11h-2.46v-.64h2.51c.37-7.05,4.31-10.47,10.48-10.47,2.59,0,4.97.56,7.07,1.65l4.81-1.65v29.56h2.05Z"/>
      <path class="cls-2" d="M120.48,10.47l-2.75,1.97-8.92,17.76-4.89,10.51-7.81-5.36,11.96-5.36-9.7-17.56-2.79-1.97h14.42l-2.75,1.97,4.56,10.59,3.86-10.59-3.16-1.97h7.97Z"/>
    </g>
    <polygon class="cls-1" points="126.13 22.52 127.28 27.49 131.68 24.77 128.9 29.08 133.98 30.2 128.9 31.32 131.68 35.63 127.28 32.91 126.13 37.88 124.99 32.91 120.59 35.63 123.37 31.32 118.29 30.2 123.37 29.08 120.59 24.77 124.99 27.49 126.13 22.52"/>
  </g>
</svg>