<?xml version="1.0" encoding="UTF-8"?>
<svg id="_레이어_2" data-name="레이어 2" xmlns="http://www.w3.org/2000/svg" viewBox="0 0 616.8 214.27">
  <defs>
    <style>
      .cls-1 {
        fill: #fff;
      }
    </style>
  </defs>
  <g id="_레이어_1-2" data-name="레이어 1">
    <g>
      <path class="cls-1" d="M0,75.44C0,31.13,30.29,2.06,76.37,2.06c21.67,0,39.76,4.74,55.12,12.57l-18.51,71.94h-.21C80.78,25.35,63.95,11.54,49.02,11.54c-9.26,0-16.41,7.01-16.41,23.5,0,52.56,43.76,95.65,88.57,95.65,5.89,0,13.25-.82,17.25-2.68l.21.21c-10.1,17.73-33.03,30.51-58.48,30.51C31.77,158.72,0,124.09,0,75.44Z"/>
      <path class="cls-1" d="M235.61,49.88v54.62h-.21c-21.88-23.71-31.77-29.06-39.13-27.83v74.62h15.78v3.3h-68.37v-3.3h10.52v-74.83l-11.99-10.1,54.07-17.73v25.77c11.99-15.46,25.67-25.15,35.34-25.15,1.47,0,2.73.21,4,.62Z"/>
      <path class="cls-1" d="M348.16,151.3v3.3h-52.59v-11.75c-9.89,8.25-21.04,13.81-32.61,13.81-13.67,0-22.93-7.63-22.93-20.61,0-18.96,20.62-31.54,55.54-35.25,0-22.67-9.26-34.01-25.24-34.01-9.47,0-15.99,2.47-23.14,7.83l-1.05-1.03c14.31-15.67,29.87-24.12,50.91-24.12,26.51,0,40.6,14.84,40.6,44.73v57.1h10.52ZM295.57,139.96v-36.48c-12.62,3.5-17.46,11.34-17.46,22.26,0,9.69,4.21,14.84,12.62,14.84,1.26,0,2.95-.21,4.84-.62Z"/>
      <path class="cls-1" d="M491.84,151.3v3.3h-63.11v-3.3h10.52V22.26l-5.89-8.86c-4.42-6.6-7.15-9.48-12.62-9.48-8.42,0-11.99,9.89-11.99,31.54v18.14h20.83v3.3h-20.83v94.41h10.52v3.3h-63.11v-3.3h10.52V56.89h-12.62v-3.3h12.83c1.89-36.07,22.09-53.59,53.65-53.59,13.25,0,25.46,2.89,36.18,8.45l24.61-8.45v151.3h10.52Z"/>
      <path class="cls-1" d="M616.8,53.59l-14.1,10.1-45.65,90.9-25.03,53.8-39.97-27.42,61.22-27.42-49.65-89.87-14.31-10.1h73.84l-14.09,10.1,23.35,54.21,19.77-54.21-16.2-10.1h40.81Z"/>
    </g>
    <g>
      <path class="cls-1" d="M19.51,208.4h-2.04l7.75-20.89h2.08l7.75,20.89h-2.04l-6.68-18.41h-.15l-6.68,18.41ZM20.97,200.39h10.58v1.71h-10.58v-1.71Z"/>
      <path class="cls-1" d="M40.66,187.51v20.89h-1.95v-20.89h1.95Z"/>
      <path class="cls-1" d="M54.18,214.27v-21.54h1.8v2.99h.22c.22-.47.53-.95.92-1.44s.9-.91,1.55-1.25c.64-.34,1.45-.51,2.43-.51,1.32,0,2.47.34,3.46,1.01.99.68,1.76,1.62,2.31,2.84s.83,2.63.83,4.24-.28,3.04-.83,4.25-1.32,2.17-2.31,2.85-2.14,1.02-3.44,1.02c-.96,0-1.77-.17-2.42-.51s-1.17-.76-1.57-1.26c-.4-.5-.71-.99-.92-1.46h-.17v8.78h-1.85ZM56.01,200.57c0,1.26.19,2.38.58,3.36.39.98.94,1.74,1.67,2.29.73.55,1.6.83,2.64.83s1.96-.29,2.69-.86c.73-.57,1.29-1.35,1.68-2.33.39-.98.58-2.08.58-3.29s-.19-2.29-.57-3.25c-.38-.96-.94-1.73-1.67-2.3-.74-.57-1.64-.85-2.71-.85s-1.93.27-2.65.82-1.28,1.3-1.66,2.26c-.38.96-.57,2.07-.57,3.32Z"/>
      <path class="cls-1" d="M71.76,208.4v-15.67h1.8v2.41h.14c.32-.79.88-1.43,1.67-1.91.79-.49,1.69-.73,2.7-.73.15,0,.32,0,.51.01s.34.01.47.02v1.85c-.08-.01-.23-.03-.44-.06-.21-.03-.43-.04-.68-.04-.83,0-1.57.17-2.22.51-.65.34-1.16.82-1.54,1.42s-.56,1.29-.56,2.07v10.12h-1.85Z"/>
      <path class="cls-1" d="M88.42,208.72c-1.38,0-2.6-.34-3.66-1.03-1.06-.69-1.89-1.64-2.48-2.85-.6-1.21-.9-2.62-.9-4.21s.3-3.02.9-4.24c.6-1.22,1.42-2.17,2.48-2.86,1.06-.68,2.28-1.03,3.66-1.03s2.6.34,3.65,1.03,1.88,1.64,2.48,2.86c.6,1.22.9,2.63.9,4.23s-.3,2.99-.9,4.21c-.6,1.21-1.42,2.16-2.48,2.85-1.06.69-2.28,1.03-3.66,1.03ZM88.42,207.06c1.11,0,2.05-.29,2.82-.88.77-.58,1.35-1.36,1.75-2.34.4-.97.6-2.04.6-3.21s-.2-2.24-.6-3.22c-.4-.98-.98-1.76-1.75-2.36-.77-.59-1.71-.89-2.82-.89s-2.04.3-2.82.89c-.77.59-1.36,1.38-1.76,2.36-.4.98-.6,2.05-.6,3.22s.2,2.24.6,3.21c.4.97.98,1.75,1.75,2.34.77.58,1.71.88,2.82.88Z"/>
      <path class="cls-1" d="M105.28,208.72c-1.31,0-2.46-.34-3.45-1.02s-1.75-1.63-2.31-2.85-.83-2.63-.83-4.25.28-3.02.83-4.24,1.32-2.16,2.32-2.84c.99-.68,2.15-1.01,3.47-1.01.97,0,1.78.17,2.43.5.65.34,1.16.75,1.55,1.25.39.5.69.98.91,1.45h.17v-8.21h1.86v20.89h-1.81v-2.91h-.22c-.21.48-.52.96-.92,1.46-.4.5-.92.92-1.57,1.26s-1.46.51-2.43.51ZM105.5,207.06c1.03,0,1.92-.28,2.64-.83.73-.55,1.29-1.32,1.67-2.29.39-.98.58-2.1.58-3.36s-.19-2.36-.57-3.32c-.38-.96-.94-1.72-1.67-2.26s-1.61-.82-2.65-.82-1.97.28-2.7.85c-.73.57-1.29,1.33-1.67,2.3-.38.97-.57,2.05-.57,3.25s.19,2.31.57,3.29c.38.98.94,1.76,1.67,2.33.73.58,1.63.86,2.69.86Z"/>
      <path class="cls-1" d="M127.66,202.41v-9.68h1.85v15.67h-1.85v-2.6h-.15c-.37.8-.97,1.47-1.78,2-.81.53-1.8.8-2.98.8-1.02,0-1.93-.22-2.72-.66s-1.41-1.08-1.86-1.93c-.45-.85-.68-1.89-.68-3.13v-10.15h1.85v10.04c0,1.22.37,2.21,1.1,2.95.74.74,1.68,1.12,2.83,1.12.72,0,1.42-.17,2.08-.51s1.21-.84,1.64-1.49.65-1.46.65-2.42Z"/>
      <path class="cls-1" d="M140.65,208.72c-1.43,0-2.67-.35-3.73-1.05-1.06-.7-1.88-1.66-2.46-2.88-.58-1.22-.87-2.6-.87-4.16s.3-2.97.89-4.19,1.42-2.18,2.47-2.88c1.05-.7,2.28-1.05,3.67-1.05,1.07,0,2.04.2,2.9.61.87.4,1.58.97,2.15,1.7.57.73.92,1.58,1.07,2.55h-1.87c-.19-.88-.66-1.64-1.4-2.27-.74-.63-1.68-.94-2.82-.94-1.02,0-1.92.27-2.71.81-.78.54-1.4,1.29-1.84,2.25-.44.96-.66,2.08-.66,3.34s.22,2.39.65,3.37c.43.98,1.04,1.74,1.82,2.29.78.55,1.69.83,2.74.83.71,0,1.35-.13,1.94-.39s1.08-.63,1.48-1.12c.4-.48.67-1.06.81-1.72h1.87c-.14.95-.48,1.79-1.02,2.52-.54.74-1.25,1.32-2.11,1.74-.86.42-1.85.63-2.96.63Z"/>
      <path class="cls-1" d="M157.01,192.73v1.58h-7.63v-1.58h7.63ZM151.77,188.98h1.86v15.33c0,.65.11,1.16.34,1.54.23.37.53.63.9.79s.76.23,1.18.23c.24,0,.45-.02.62-.05.17-.03.33-.06.46-.1l.4,1.64c-.18.07-.4.13-.67.19-.26.06-.59.09-.98.09-.68,0-1.33-.15-1.96-.44s-1.14-.73-1.55-1.31c-.4-.58-.6-1.29-.6-2.15v-15.76Z"/>
      <path class="cls-1" d="M162.19,190.04c-.38,0-.71-.13-.98-.38s-.41-.56-.41-.92.14-.67.41-.92c.27-.25.6-.38.97-.38s.71.13.98.38.41.56.41.92-.14.67-.41.92-.6.38-.97.38ZM161.24,208.4v-15.67h1.86v15.67h-1.86Z"/>
      <path class="cls-1" d="M174.23,208.72c-1.38,0-2.6-.34-3.66-1.03-1.06-.69-1.89-1.64-2.48-2.85-.6-1.21-.9-2.62-.9-4.21s.3-3.02.9-4.24c.6-1.22,1.42-2.17,2.48-2.86,1.06-.68,2.28-1.03,3.66-1.03s2.6.34,3.65,1.03,1.88,1.64,2.48,2.86c.6,1.22.9,2.63.9,4.23s-.3,2.99-.9,4.21c-.6,1.21-1.42,2.16-2.48,2.85-1.06.69-2.28,1.03-3.66,1.03ZM174.23,207.06c1.11,0,2.05-.29,2.82-.88.77-.58,1.35-1.36,1.75-2.34.4-.97.6-2.04.6-3.21s-.2-2.24-.6-3.22c-.4-.98-.98-1.76-1.75-2.36-.77-.59-1.71-.89-2.82-.89s-2.04.3-2.82.89c-.77.59-1.36,1.38-1.76,2.36-.4.98-.6,2.05-.6,3.22s.2,2.24.6,3.21c.4.97.98,1.75,1.75,2.34.77.58,1.71.88,2.82.88Z"/>
      <path class="cls-1" d="M187.19,198.61v9.79h-1.85v-15.67h1.8v2.46h.17c.38-.8.96-1.45,1.75-1.93.79-.49,1.78-.73,2.95-.73,1.08,0,2.02.22,2.84.66.81.44,1.45,1.08,1.9,1.93.45.85.68,1.89.68,3.13v10.15h-1.85v-10.04c0-1.29-.37-2.3-1.1-3.05-.73-.75-1.71-1.12-2.94-1.12-.84,0-1.59.18-2.24.53s-1.17.86-1.55,1.52c-.38.66-.57,1.45-.57,2.36Z"/>
      <path class="cls-1" d="M216.81,208.72c-1.43,0-2.67-.35-3.73-1.05-1.06-.7-1.88-1.66-2.46-2.88-.58-1.22-.87-2.6-.87-4.16s.3-2.97.89-4.19,1.42-2.18,2.47-2.88c1.05-.7,2.28-1.05,3.67-1.05,1.07,0,2.04.2,2.9.61.87.4,1.58.97,2.15,1.7.57.73.92,1.58,1.07,2.55h-1.87c-.19-.88-.66-1.64-1.4-2.27-.74-.63-1.68-.94-2.82-.94-1.02,0-1.92.27-2.71.81-.78.54-1.4,1.29-1.84,2.25-.44.96-.66,2.08-.66,3.34s.22,2.39.65,3.37c.43.98,1.04,1.74,1.82,2.29.78.55,1.69.83,2.74.83.71,0,1.35-.13,1.94-.39s1.08-.63,1.48-1.12c.4-.48.67-1.06.81-1.72h1.87c-.14.95-.48,1.79-1.02,2.52-.54.74-1.25,1.32-2.11,1.74-.86.42-1.85.63-2.96.63Z"/>
      <path class="cls-1" d="M233.09,208.72c-1.38,0-2.6-.34-3.66-1.03-1.06-.69-1.89-1.64-2.48-2.85-.6-1.21-.9-2.62-.9-4.21s.3-3.02.9-4.24c.6-1.22,1.42-2.17,2.48-2.86,1.06-.68,2.28-1.03,3.66-1.03s2.6.34,3.65,1.03,1.88,1.64,2.48,2.86c.6,1.22.9,2.63.9,4.23s-.3,2.99-.9,4.21c-.6,1.21-1.42,2.16-2.48,2.85-1.06.69-2.28,1.03-3.66,1.03ZM233.09,207.06c1.11,0,2.05-.29,2.82-.88.77-.58,1.35-1.36,1.75-2.34.4-.97.6-2.04.6-3.21s-.2-2.24-.6-3.22c-.4-.98-.98-1.76-1.75-2.36-.77-.59-1.71-.89-2.82-.89s-2.04.3-2.82.89c-.77.59-1.36,1.38-1.76,2.36-.4.98-.6,2.05-.6,3.22s.2,2.24.6,3.21c.4.97.98,1.75,1.75,2.34.77.58,1.71.88,2.82.88Z"/>
      <path class="cls-1" d="M244.2,214.27v-21.54h1.8v2.99h.22c.22-.47.53-.95.92-1.44s.9-.91,1.55-1.25c.64-.34,1.45-.51,2.43-.51,1.32,0,2.47.34,3.46,1.01.99.68,1.76,1.62,2.31,2.84s.83,2.63.83,4.24-.28,3.04-.83,4.25-1.32,2.17-2.31,2.85-2.14,1.02-3.44,1.02c-.96,0-1.77-.17-2.42-.51s-1.17-.76-1.57-1.26c-.4-.5-.71-.99-.92-1.46h-.17v8.78h-1.85ZM246.03,200.57c0,1.26.19,2.38.58,3.36.39.98.94,1.74,1.67,2.29.73.55,1.6.83,2.64.83s1.96-.29,2.69-.86c.73-.57,1.29-1.35,1.68-2.33.39-.98.58-2.08.58-3.29s-.19-2.29-.57-3.25c-.38-.96-.94-1.73-1.67-2.3-.74-.57-1.64-.85-2.71-.85s-1.93.27-2.65.82-1.28,1.3-1.66,2.26c-.38.96-.57,2.07-.57,3.32Z"/>
      <path class="cls-1" d="M262.74,190.04c-.38,0-.71-.13-.98-.38s-.41-.56-.41-.92.14-.67.41-.92c.27-.25.6-.38.97-.38s.71.13.98.38.41.56.41.92-.14.67-.41.92-.6.38-.97.38ZM261.8,208.4v-15.67h1.86v15.67h-1.86Z"/>
      <path class="cls-1" d="M270.42,187.51v20.89h-1.85v-20.89h1.85Z"/>
      <path class="cls-1" d="M281.53,208.72c-1.38,0-2.6-.34-3.66-1.03-1.06-.69-1.89-1.64-2.48-2.85-.6-1.21-.9-2.62-.9-4.21s.3-3.02.9-4.24c.6-1.22,1.42-2.17,2.48-2.86,1.06-.68,2.28-1.03,3.66-1.03s2.6.34,3.65,1.03,1.88,1.64,2.48,2.86c.6,1.22.9,2.63.9,4.23s-.3,2.99-.9,4.21c-.6,1.21-1.42,2.16-2.48,2.85-1.06.69-2.28,1.03-3.66,1.03ZM281.53,207.06c1.11,0,2.05-.29,2.82-.88.77-.58,1.35-1.36,1.75-2.34.4-.97.6-2.04.6-3.21s-.2-2.24-.6-3.22c-.4-.98-.98-1.76-1.75-2.36-.77-.59-1.71-.89-2.82-.89s-2.04.3-2.82.89c-.77.59-1.36,1.38-1.76,2.36-.4.98-.6,2.05-.6,3.22s.2,2.24.6,3.21c.4.97.98,1.75,1.75,2.34.77.58,1.71.88,2.82.88Z"/>
      <path class="cls-1" d="M298.93,192.73v1.58h-7.63v-1.58h7.63ZM293.69,188.98h1.86v15.33c0,.65.11,1.16.34,1.54.23.37.53.63.9.79s.76.23,1.18.23c.24,0,.45-.02.62-.05.17-.03.33-.06.46-.1l.4,1.64c-.18.07-.4.13-.67.19-.26.06-.59.09-.98.09-.68,0-1.33-.15-1.96-.44s-1.14-.73-1.55-1.31c-.4-.58-.6-1.29-.6-2.15v-15.76Z"/>
      <path class="cls-1" d="M317.96,192.73v1.58h-7.86v-1.58h7.86ZM312.56,208.4v-17.96c0-.84.2-1.55.6-2.13s.92-1.02,1.57-1.32c.65-.3,1.33-.45,2.05-.45.49,0,.89.04,1.21.12s.58.15.77.23l-.54,1.59c-.14-.04-.31-.09-.51-.14-.2-.05-.45-.08-.76-.08-.81,0-1.43.22-1.86.66-.44.44-.66,1.07-.66,1.9v17.58h-1.86Z"/>
      <path class="cls-1" d="M327.88,208.72c-1.38,0-2.6-.34-3.66-1.03-1.06-.69-1.89-1.64-2.48-2.85-.6-1.21-.9-2.62-.9-4.21s.3-3.02.9-4.24c.6-1.22,1.42-2.17,2.48-2.86,1.06-.68,2.28-1.03,3.66-1.03s2.6.34,3.65,1.03,1.88,1.64,2.48,2.86c.6,1.22.9,2.63.9,4.23s-.3,2.99-.9,4.21c-.6,1.21-1.42,2.16-2.48,2.85-1.06.69-2.28,1.03-3.66,1.03ZM327.88,207.06c1.11,0,2.05-.29,2.82-.88.77-.58,1.35-1.36,1.75-2.34.4-.97.6-2.04.6-3.21s-.2-2.24-.6-3.22c-.4-.98-.98-1.76-1.75-2.36-.77-.59-1.71-.89-2.82-.89s-2.04.3-2.82.89c-.77.59-1.36,1.38-1.76,2.36-.4.98-.6,2.05-.6,3.22s.2,2.24.6,3.21c.4.97.98,1.75,1.75,2.34.77.58,1.71.88,2.82.88Z"/>
      <path class="cls-1" d="M338.99,208.4v-15.67h1.8v2.41h.14c.32-.79.88-1.43,1.67-1.91s1.7-.73,2.7-.73c.15,0,.32,0,.51.01s.34.01.47.02v1.85c-.08-.01-.23-.03-.44-.06-.21-.03-.43-.04-.68-.04-.83,0-1.57.17-2.22.51-.65.34-1.16.82-1.54,1.42-.38.61-.56,1.29-.56,2.07v10.12h-1.85Z"/>
      <path class="cls-1" d="M363.92,208.72c-1.43,0-2.67-.35-3.73-1.05-1.06-.7-1.88-1.66-2.46-2.88-.58-1.22-.87-2.6-.87-4.16s.3-2.97.89-4.19c.59-1.22,1.42-2.18,2.47-2.88,1.05-.7,2.28-1.05,3.67-1.05,1.07,0,2.04.2,2.9.61.87.4,1.58.97,2.15,1.7.57.73.92,1.58,1.07,2.55h-1.87c-.19-.88-.66-1.64-1.4-2.27s-1.68-.94-2.82-.94c-1.02,0-1.92.27-2.71.81-.78.54-1.4,1.29-1.84,2.25-.44.96-.66,2.08-.66,3.34s.21,2.39.65,3.37c.43.98,1.04,1.74,1.82,2.29.78.55,1.69.83,2.74.83.71,0,1.35-.13,1.94-.39.59-.26,1.08-.63,1.48-1.12.4-.48.67-1.06.81-1.72h1.87c-.14.95-.48,1.79-1.03,2.52-.54.74-1.25,1.32-2.11,1.74-.86.42-1.85.63-2.96.63Z"/>
      <path class="cls-1" d="M373.99,208.4v-15.67h1.8v2.41h.14c.32-.79.88-1.43,1.67-1.91.79-.49,1.69-.73,2.7-.73.15,0,.32,0,.51.01s.34.01.47.02v1.85c-.08-.01-.23-.03-.44-.06-.21-.03-.43-.04-.68-.04-.83,0-1.57.17-2.22.51-.65.34-1.16.82-1.54,1.42s-.56,1.29-.56,2.07v10.12h-1.85Z"/>
      <path class="cls-1" d="M390.9,208.72c-1.49,0-2.78-.34-3.87-1.02-1.09-.68-1.93-1.63-2.52-2.85s-.89-2.61-.89-4.2.3-2.98.89-4.21c.59-1.23,1.42-2.19,2.47-2.89,1.05-.7,2.27-1.05,3.65-1.05.87,0,1.7.16,2.51.46.8.31,1.53.78,2.17,1.42s1.15,1.43,1.52,2.4c.38.96.56,2.1.56,3.41v.9h-12.49v-1.6h10.6c0-1.01-.21-1.91-.62-2.72s-.99-1.44-1.72-1.91c-.73-.47-1.58-.7-2.53-.7-1.01,0-1.91.27-2.67.8-.77.53-1.37,1.23-1.81,2.1s-.65,1.82-.66,2.86v.96c0,1.24.22,2.33.66,3.26.44.93,1.07,1.65,1.88,2.16.81.51,1.77.76,2.88.76.76,0,1.42-.12,1.99-.35s1.05-.54,1.45-.93c.39-.39.69-.82.89-1.29l1.76.56c-.24.66-.64,1.27-1.19,1.83-.55.56-1.24,1-2.06,1.34-.82.34-1.77.5-2.84.5Z"/>
      <path class="cls-1" d="M405.92,208.75c-.96,0-1.85-.19-2.64-.56-.8-.37-1.43-.91-1.91-1.61-.47-.7-.71-1.56-.71-2.56,0-.78.15-1.43.45-1.96.3-.53.72-.97,1.27-1.31.55-.34,1.2-.61,1.95-.81.75-.2,1.58-.35,2.48-.46.9-.11,1.65-.2,2.27-.29.62-.08,1.09-.21,1.42-.39.33-.18.49-.46.49-.86v-.37c0-1.07-.32-1.91-.97-2.52-.65-.62-1.58-.92-2.79-.92s-2.09.25-2.82.75c-.72.5-1.23,1.08-1.52,1.75l-1.76-.62c.36-.86.86-1.54,1.5-2.05.64-.51,1.35-.88,2.14-1.11.79-.23,1.59-.34,2.4-.34.61,0,1.25.08,1.91.24.66.16,1.28.43,1.85.81s1.03.92,1.38,1.6c.35.68.53,1.55.53,2.6v10.64h-1.85v-2.48h-.11c-.22.46-.55.91-.99,1.35-.44.43-.99.79-1.64,1.07-.66.28-1.43.42-2.32.42ZM406.17,207.09c.99,0,1.84-.21,2.56-.64.72-.43,1.28-1,1.67-1.71.39-.71.59-1.49.59-2.35v-2.26c-.14.13-.37.25-.69.35-.32.1-.69.19-1.11.27-.42.08-.84.14-1.25.2-.42.05-.79.1-1.12.14-.9.11-1.67.28-2.31.51-.64.23-1.13.55-1.47.95-.34.4-.51.92-.51,1.55,0,.95.35,1.69,1.04,2.21.69.52,1.56.78,2.61.78Z"/>
      <path class="cls-1" d="M424.06,192.73v1.58h-7.63v-1.58h7.63ZM418.82,188.98h1.86v15.33c0,.65.11,1.16.34,1.54.23.37.53.63.89.79.37.15.76.23,1.18.23.24,0,.45-.02.62-.05.17-.03.33-.06.46-.1l.4,1.64c-.18.07-.4.13-.67.19-.26.06-.59.09-.98.09-.68,0-1.33-.15-1.96-.44s-1.14-.73-1.55-1.31c-.4-.58-.6-1.29-.6-2.15v-15.76Z"/>
      <path class="cls-1" d="M434.48,208.72c-1.38,0-2.6-.34-3.66-1.03-1.06-.69-1.89-1.64-2.48-2.85-.6-1.21-.89-2.62-.89-4.21s.3-3.02.89-4.24,1.42-2.17,2.48-2.86c1.06-.68,2.28-1.03,3.66-1.03s2.6.34,3.65,1.03,1.88,1.64,2.48,2.86c.6,1.22.9,2.63.9,4.23s-.3,2.99-.9,4.21c-.6,1.21-1.42,2.16-2.48,2.85-1.06.69-2.28,1.03-3.66,1.03ZM434.48,207.06c1.11,0,2.05-.29,2.82-.88.77-.58,1.36-1.36,1.75-2.34.4-.97.6-2.04.6-3.21s-.2-2.24-.6-3.22c-.4-.98-.98-1.76-1.75-2.36-.77-.59-1.71-.89-2.82-.89s-2.04.3-2.82.89c-.77.59-1.36,1.38-1.76,2.36-.4.98-.6,2.05-.6,3.22s.2,2.24.6,3.21c.4.97.98,1.75,1.75,2.34.77.58,1.71.88,2.82.88Z"/>
      <path class="cls-1" d="M445.59,208.4v-15.67h1.8v2.41h.13c.32-.79.88-1.43,1.67-1.91.79-.49,1.69-.73,2.7-.73.15,0,.32,0,.51.01s.34.01.47.02v1.85c-.08-.01-.23-.03-.44-.06-.21-.03-.43-.04-.68-.04-.83,0-1.57.17-2.22.51-.65.34-1.16.82-1.54,1.42-.38.61-.56,1.29-.56,2.07v10.12h-1.85Z"/>
      <path class="cls-1" d="M466.78,196.17l-1.7.47c-.17-.47-.4-.89-.71-1.28s-.7-.68-1.19-.91c-.49-.22-1.09-.34-1.82-.34-1.08,0-1.97.25-2.67.75-.69.5-1.04,1.15-1.04,1.95,0,.67.24,1.22.71,1.64.47.42,1.21.75,2.2.99l2.42.58c1.34.32,2.34.83,3.01,1.52.67.69,1,1.56,1,2.61,0,.88-.25,1.67-.75,2.36-.5.69-1.2,1.23-2.09,1.62-.89.39-1.92.59-3.1.59-1.56,0-2.85-.34-3.86-1.04-1.01-.69-1.66-1.69-1.95-2.99l1.78-.43c.23.93.68,1.64,1.35,2.11.67.48,1.55.71,2.65.71,1.23,0,2.21-.27,2.95-.81.74-.54,1.1-1.22,1.1-2.04,0-.63-.22-1.16-.65-1.6-.43-.43-1.08-.75-1.96-.95l-2.61-.61c-1.39-.33-2.42-.84-3.08-1.55-.67-.71-1-1.58-1-2.63,0-.86.24-1.62.72-2.28s1.14-1.17,1.98-1.54,1.8-.56,2.87-.56c1.46,0,2.63.33,3.51.97s1.51,1.54,1.9,2.68Z"/>
    </g>
  </g>
</svg>

